
<svg width="112px" height="28px" viewBox="215 132 112 28" version="1.1" xmlns="http://www.w3.org/2000/svg" xmlns:xlink="http://www.w3.org/1999/xlink">
    <!-- Generator: Sketch 41.1 (35376) - http://www.bohemiancoding.com/sketch -->
    <desc>Created with Sketch.</desc>
    <defs></defs>
    <g id="logo" stroke="none" stroke-width="1" fill="none" fill-rule="evenodd" transform="translate(215.000000, 132.000000)">
        <path d="M29.070313,16.015625 L29.070313,17.09375 C28.0807247,18.020838 27.2395873,18.7682263 26.5468755,19.3359375 C25.8541637,19.9036487 25.1640664,20.4140602 24.476563,20.8671875 C23.7890596,21.3203148 23.2187528,21.6432282 22.7656255,21.8359375 C22.3124982,22.0286468 21.9244813,22.125 21.601563,22.125 C20.8307258,22.125 20.2005238,21.8385445 19.710938,21.265625 C19.2213522,20.6927055 18.976563,19.9531295 18.976563,19.046875 C18.976563,18.0052031 19.1874984,16.9739634 19.6093755,15.953125 C20.0312526,14.9322866 20.6328091,13.8776096 21.414063,12.7890625 C22.1953169,11.7005154 23.1744738,10.4791734 24.351563,9.125 C25.2265674,8.124995 25.664063,7.56250062 25.664063,7.4375 C25.664063,7.36458297 25.6380216,7.30208359 25.585938,7.25 C25.5338544,7.19791641 25.4765633,7.171875 25.414063,7.171875 C25.2161453,7.171875 24.6067764,7.60937063 23.585938,8.484375 C22.5650996,9.35937937 21.2552168,10.6458248 19.6562505,12.34375 C18.0572842,14.0416752 16.3307389,16.0624883 14.476563,18.40625 C14.3723958,18.5312506 14.04167,18.9557255 13.4843755,19.6796875 C12.927081,20.4036495 12.5338558,20.8749989 12.304688,21.09375 C12.0755202,21.3125011 11.8776055,21.421875 11.710938,21.421875 C11.4192699,21.421875 11.1666682,21.1276071 10.9531255,20.5390625 C10.7395828,19.9505179 10.632813,19.32292 10.632813,18.65625 C10.632813,18.249998 10.7656242,17.8125023 11.0312505,17.34375 C11.2968768,16.8749977 11.874996,16.0338602 12.7656255,14.8203125 C13.656255,13.6067648 14.3932267,12.5833375 14.976563,11.75 C15.5598992,10.9166625 16.2005178,9.90625594 16.898438,8.71875 C17.3880238,7.89582922 17.7499993,7.23958578 17.9843755,6.75 C18.2187517,6.26041422 18.335938,5.82812688 18.335938,5.453125 C18.335938,5.13020672 18.2421889,4.96875 18.054688,4.96875 C17.6588527,4.96875 16.9140685,5.49739055 15.820313,6.5546875 C14.7265575,7.61198445 13.3750085,9.18228125 11.7656255,11.265625 C10.1562425,13.3489687 8.47657175,15.760403 6.726563,18.5 C6.15364347,19.4375047 5.74739753,20.0677067 5.507813,20.390625 C5.26822847,20.7135433 5.00260612,20.875 4.710938,20.875 C4.34635284,20.875 4.00521042,20.486983 3.6875005,19.7109375 C3.36979058,18.934892 3.210938,18.3072941 3.210938,17.828125 C3.210938,17.6718742 3.27343737,17.5000009 3.398438,17.3125 C4.77344487,15.4791575 5.90364191,13.9218814 6.789063,12.640625 C7.67448409,11.3593686 8.46093456,10.1432349 9.148438,8.9921875 C9.83594144,7.84114008 10.3359364,6.89323289 10.648438,6.1484375 C10.9609396,5.40364211 11.117188,4.81771047 11.117188,4.390625 C11.117188,3.94270609 10.914065,3.71875 10.507813,3.71875 C10.174478,3.71875 9.60677534,3.93228953 8.804688,4.359375 C8.00260066,4.78646047 6.98958995,5.36978797 5.7656255,6.109375 C4.54166105,6.84896203 3.55990003,7.41406055 2.820313,7.8046875 C2.08072597,8.19531445 1.52864816,8.390625 1.164063,8.390625 C0.820311281,8.390625 0.648438,8.19791859 0.648438,7.8125 C0.648438,7.59374891 0.721353937,7.09114977 0.867188,6.3046875 C1.01302206,5.51822523 1.16406222,4.96354328 1.320313,4.640625 C1.53906409,4.22395625 2.09895433,3.67187844 3.0000005,2.984375 C3.90104667,2.29687156 4.39843753,1.953125 4.492188,1.953125 C4.57552175,1.953125 4.617188,1.98958297 4.617188,2.0625 C4.617188,2.10416688 4.57552175,2.16666625 4.492188,2.25 C4.06510253,2.59375172 3.74739737,2.87499891 3.539063,3.09375 C3.33072862,3.31250109 3.20052159,3.55208203 3.148438,3.8125 C5.05469753,2.66666094 6.76040964,1.79427383 8.2656255,1.1953125 C9.77084136,0.596351172 10.8151017,0.296875 11.398438,0.296875 C11.6901061,0.296875 11.966145,0.492185547 12.226563,0.8828125 C12.486981,1.27343945 12.7083329,1.72655992 12.8906255,2.2421875 C13.0729181,2.75781508 13.164063,3.08854094 13.164063,3.234375 C13.164063,3.76562766 13.0286477,4.39322555 12.757813,5.1171875 C12.4869783,5.84114945 12.1197945,6.68228687 11.6562505,7.640625 C11.1927065,8.59896313 10.6171914,9.79686781 9.929688,11.234375 C10.4713574,10.5364548 10.9869772,9.89062797 11.476563,9.296875 C11.9661488,8.70312203 12.4531231,8.12500281 12.9375005,7.5625 C13.4218779,6.99999719 13.9140605,6.43229453 14.414063,5.859375 C15.0911497,5.07812109 15.8515588,4.33073273 16.695313,3.6171875 C17.5390672,2.90364227 18.3281218,2.32031477 19.0625005,1.8671875 C19.7968792,1.41406023 20.29427,1.1875 20.554688,1.1875 C20.9192732,1.1875 21.2447907,1.38801883 21.5312505,1.7890625 C21.8177103,2.19010617 21.960938,2.61978938 21.960938,3.078125 C21.960938,3.38020984 21.7630233,3.95832906 21.367188,4.8125 C20.9713527,5.66667094 20.3932335,6.76041 19.632813,8.09375 C18.8723925,9.42709 17.8671942,11.1458228 16.617188,13.25 C17.8046939,11.989577 19.0390566,10.692715 20.320313,9.359375 C21.6015694,8.026035 22.5546849,7.05208641 23.179688,6.4375 C23.8046911,5.82291359 24.3255192,5.35416828 24.742188,5.03125 C25.3151075,4.59374781 25.8906226,4.12239836 26.4687505,3.6171875 C27.0468784,3.11197664 27.502603,2.71354313 27.835938,2.421875 C28.169273,2.13020687 28.466145,1.90625078 28.726563,1.75 C28.986981,1.59374922 29.2265619,1.515625 29.445313,1.515625 C29.7161477,1.515625 30.0572901,1.82812188 30.4687505,2.453125 C30.8802109,3.07812812 31.085938,3.47916578 31.085938,3.65625 C31.085938,3.87500109 30.9635434,4.13541516 30.7187505,4.4375 C30.4739576,4.73958484 29.9661502,5.30207922 29.195313,6.125 C27.7786392,7.64584094 26.5494849,9.17967977 25.507813,10.7265625 C24.4661411,12.2734452 23.6770865,13.6848895 23.1406255,14.9609375 C22.6041645,16.2369855 22.335938,17.244788 22.335938,17.984375 C22.335938,18.4427106 22.4218746,18.7760406 22.5937505,18.984375 C22.7656264,19.1927094 23.0338528,19.296875 23.398438,19.296875 C23.731773,19.296875 24.0416657,19.2343756 24.3281255,19.109375 C24.6145853,18.9843744 24.9322904,18.8072928 25.2812505,18.578125 C25.6302106,18.3489572 25.9609364,18.1302094 26.273438,17.921875 C26.7109402,17.661457 27.1406234,17.382814 27.5625005,17.0859375 C27.9843776,16.789061 28.3124993,16.5546884 28.5468755,16.3828125 C28.7812517,16.2109366 28.9557291,16.088542 29.070313,16.015625 Z M35.367188,9.09375 C35.10677,9.09375 34.8593767,8.99479266 34.6250005,8.796875 C34.3906243,8.59895734 34.273438,8.34895984 34.273438,8.046875 C34.273438,7.58853937 34.4921858,7.07812781 34.929688,6.515625 C35.3671902,5.95312219 35.8203107,5.671875 36.289063,5.671875 C36.6015646,5.671875 36.8619786,5.7682282 37.070313,5.9609375 C37.2786474,6.1536468 37.382813,6.43228984 37.382813,6.796875 C37.382813,7.24479391 37.1692735,7.73958062 36.742188,8.28125 C36.3151025,8.82291937 35.8567738,9.09375 35.367188,9.09375 Z M36.429688,16.078125 L36.429688,17.21875 C35.4192663,18.5208398 34.4765674,19.5026009 33.601563,20.1640625 C32.7265586,20.8255241 31.9817744,21.15625 31.367188,21.15625 C30.5130171,21.15625 29.8776067,20.7083378 29.460938,19.8125 C29.0442692,18.9166622 28.835938,17.9375053 28.835938,16.875 C28.835938,16.468748 28.8776042,16.080731 28.960938,15.7109375 C29.0442718,15.341144 29.1432291,15.0364595 29.257813,14.796875 C29.3723969,14.5572905 29.5859364,14.1822942 29.898438,13.671875 C31.3776121,11.3697802 32.7317652,10.21875 33.960938,10.21875 C34.5963578,10.21875 34.914063,10.4635392 34.914063,10.953125 C34.914063,11.28646 34.7083359,11.8072881 34.2968755,12.515625 C33.8854151,13.2239619 33.5182313,13.7291652 33.195313,14.03125 C32.2890585,14.9062544 31.6979185,15.5156233 31.4218755,15.859375 C31.1458325,16.2031267 31.007813,16.5937478 31.007813,17.03125 C31.007813,17.4062519 31.1484366,17.7187487 31.429688,17.96875 C31.7109394,18.2187513 32.0755191,18.34375 32.523438,18.34375 C33.0130238,18.34375 33.5520809,18.1640643 34.1406255,17.8046875 C34.7291701,17.4453107 35.4921833,16.8697956 36.429688,16.078125 Z M46.820313,13.25 C44.9869705,15.2916769 44.070313,16.7135377 44.070313,17.515625 C44.070313,17.9635439 44.2526028,18.1875 44.617188,18.1875 C44.9192728,18.1875 45.3124981,18.0286474 45.7968755,17.7109375 C46.2812529,17.3932276 47.0390578,16.8281291 48.070313,16.015625 L48.070313,17.09375 C46.5911389,18.5520906 45.4557336,19.6041634 44.664063,20.25 C43.8723924,20.8958366 43.2265655,21.21875 42.726563,21.21875 C41.8723921,21.21875 41.445313,20.6562556 41.445313,19.53125 C41.445313,19.197915 41.4973958,18.8697933 41.601563,18.546875 C41.7057302,18.2239567 41.8489579,17.8880226 42.0312505,17.5390625 C42.2135431,17.1901024 42.4921861,16.6901074 42.867188,16.0390625 C43.2421899,15.3880176 43.6744772,14.6510458 44.164063,13.828125 C43.57031,14.1302098 42.8255258,14.7291622 41.929688,15.625 C41.3463517,16.1875028 40.851565,16.7213516 40.445313,17.2265625 C40.039061,17.7317734 39.6041695,18.2942677 39.1406255,18.9140625 C38.6770815,19.5338573 38.3385432,19.9505198 38.1250005,20.1640625 C37.9114578,20.3776052 37.6953141,20.484375 37.476563,20.484375 C37.143228,20.484375 36.8359394,20.1354202 36.554688,19.4375 C36.2734366,18.7395798 36.132813,17.927088 36.132813,17 C36.132813,16.4270805 36.1979165,15.9791683 36.3281255,15.65625 C36.4583345,15.3333317 36.7161444,14.875003 37.101563,14.28125 C37.8203166,13.1770778 38.4401021,12.3671901 38.960938,11.8515625 C39.4817739,11.3359349 39.9817689,11.078125 40.460938,11.078125 C40.794273,11.078125 41.0624995,11.1354161 41.2656255,11.25 C41.4687515,11.3645839 41.570313,11.5416655 41.570313,11.78125 C41.570313,11.8854172 41.5390633,11.9947911 41.476563,12.109375 C41.4140627,12.2239589 41.3437509,12.3281245 41.2656255,12.421875 C41.1875001,12.5156255 41.0234392,12.6979153 40.773438,12.96875 C39.1275964,14.7916758 38.304688,15.9739556 38.304688,16.515625 C38.304688,16.8177098 38.4036453,16.96875 38.601563,16.96875 C38.7265636,16.96875 38.9687487,16.7682312 39.3281255,16.3671875 C39.6875023,15.9661438 40.1510393,15.4401074 40.7187505,14.7890625 C41.2864617,14.1380176 41.95833,13.4583369 42.7343755,12.75 C43.510421,12.0416631 44.3932247,11.3593783 45.382813,10.703125 C45.9348991,10.3177064 46.3932278,10.125 46.757813,10.125 C46.9244805,10.125 47.0885414,10.3541644 47.2500005,10.8125 C47.4114596,11.2708356 47.492188,11.7343727 47.492188,12.203125 C47.492188,12.4322928 47.2682319,12.7812477 46.820313,13.25 Z M54.382813,9.09375 C54.122395,9.09375 53.8750017,8.99479266 53.6406255,8.796875 C53.4062493,8.59895734 53.289063,8.34895984 53.289063,8.046875 C53.289063,7.58853937 53.5078108,7.07812781 53.945313,6.515625 C54.3828152,5.95312219 54.8359357,5.671875 55.304688,5.671875 C55.6171896,5.671875 55.8776036,5.7682282 56.085938,5.9609375 C56.2942724,6.1536468 56.398438,6.43228984 56.398438,6.796875 C56.398438,7.24479391 56.1848985,7.73958062 55.757813,8.28125 C55.3307275,8.82291937 54.8723988,9.09375 54.382813,9.09375 Z M55.445313,16.078125 L55.445313,17.21875 C54.4348913,18.5208398 53.4921924,19.5026009 52.617188,20.1640625 C51.7421836,20.8255241 50.9973994,21.15625 50.382813,21.15625 C49.5286421,21.15625 48.8932317,20.7083378 48.476563,19.8125 C48.0598942,18.9166622 47.851563,17.9375053 47.851563,16.875 C47.851563,16.468748 47.8932292,16.080731 47.976563,15.7109375 C48.0598968,15.341144 48.1588541,15.0364595 48.273438,14.796875 C48.3880219,14.5572905 48.6015614,14.1822942 48.914063,13.671875 C50.3932371,11.3697802 51.7473902,10.21875 52.976563,10.21875 C53.6119828,10.21875 53.929688,10.4635392 53.929688,10.953125 C53.929688,11.28646 53.7239609,11.8072881 53.3125005,12.515625 C52.9010401,13.2239619 52.5338563,13.7291652 52.210938,14.03125 C51.3046835,14.9062544 50.7135435,15.5156233 50.4375005,15.859375 C50.1614575,16.2031267 50.023438,16.5937478 50.023438,17.03125 C50.023438,17.4062519 50.1640616,17.7187487 50.445313,17.96875 C50.7265644,18.2187513 51.0911441,18.34375 51.539063,18.34375 C52.0286488,18.34375 52.5677059,18.1640643 53.1562505,17.8046875 C53.7447951,17.4453107 54.5078083,16.8697956 55.445313,16.078125 Z" id="Mini" fill="#0C79B1"></path>
        <path d="M72.109375,16.1569643 C71.848957,15.6777952 71.4583359,15.2455079 70.9375,14.8600893 C70.4166641,14.4746707 69.8307324,14.164778 69.1796875,13.9304018 C68.5286426,13.6960256 67.8489619,13.5215482 67.140625,13.4069643 C65.0364478,13.0944627 63.0729258,12.4121779 61.25,11.3600893 C61.0937492,11.2767555 60.9270842,11.099674 60.75,10.8288393 C60.5729158,10.5580046 60.484375,10.2975905 60.484375,10.0475893 C60.484375,9.13091805 60.6380193,8.21165641 60.9453125,7.2897768 C61.2526057,6.36789719 61.6458309,5.64655024 62.125,5.1257143 C62.8958372,4.26112664 64.2838441,3.50592586 66.2890625,2.8600893 C68.2942809,2.21425274 70.5520708,1.8913393 73.0625,1.8913393 C74.5625075,1.8913393 75.7213501,2.00592149 76.5390625,2.2350893 C77.3567749,2.46425711 77.765625,2.81842024 77.765625,3.2975893 C77.765625,4.07884321 77.6588552,4.68300383 77.4453125,5.1100893 C77.2317698,5.53717477 77.0026054,5.8210261 76.7578125,5.9616518 C76.5130196,6.1022775 76.0833364,6.29237977 75.46875,6.5319643 C74.8124967,6.76113211 74.2421899,7.00071305 73.7578125,7.2507143 C73.2734351,7.50071555 72.8593767,7.74029649 72.515625,7.9694643 C72.1718733,8.19863211 71.9583338,8.3132143 71.875,8.3132143 C71.7708328,8.3132143 71.71875,8.27154805 71.71875,8.1882143 C71.71875,8.01113008 71.903644,7.7429036 72.2734375,7.3835268 C72.643231,7.02415 73.0989556,6.70904899 73.640625,6.4382143 C74.2135445,6.13612946 74.5,5.94342305 74.5,5.8600893 C74.5,5.72467196 74.1822948,5.6569643 73.546875,5.6569643 C71.619782,5.6569643 69.8385498,5.82883758 68.203125,6.1725893 C66.5677002,6.51634102 65.2786505,6.96946149 64.3359375,7.5319643 C63.3932245,8.09446711 62.921875,8.66737805 62.921875,9.2507143 C62.921875,9.61529946 63.1171855,9.87310938 63.5078125,10.0241518 C63.8984395,10.1751942 64.76041,10.4277959 66.09375,10.7819643 C67.42709,11.1361327 68.6197864,11.5423787 69.671875,12.0007143 C71.1822992,12.6465509 72.3020797,13.3184191 73.03125,14.0163393 C73.7604203,14.7142595 74.125,15.4955016 74.125,16.3600893 C74.125,16.9538423 73.9817723,17.5501905 73.6953125,18.1491518 C73.4088527,18.7481131 72.9895861,19.2975868 72.4375,19.7975893 C71.8854139,20.2975918 71.2500036,20.709046 70.53125,21.0319643 C69.9166636,21.2923823 69.1432338,21.5371715 68.2109375,21.7663393 C67.2786412,21.9955071 66.2682346,22.1751928 65.1796875,22.3054018 C64.0911404,22.4356108 63.0520883,22.5007143 62.0625,22.5007143 C60.2395742,22.5007143 58.773443,22.328841 57.6640625,21.9850893 C56.554682,21.6413376 56,21.1205095 56,20.4225893 C56,20.1100877 56.1874981,19.6231134 56.5625,18.9616518 C56.9375019,18.3001902 57.3802058,17.8548821 57.890625,17.6257143 C58.3385439,17.4486301 58.7708313,17.3470686 59.1875,17.3210268 C59.6041687,17.294985 59.8125,17.3444637 59.8125,17.4694643 C59.8125,17.5007145 59.7968752,17.5319641 59.765625,17.5632143 C59.7343748,17.5944645 59.6979169,17.6205059 59.65625,17.6413393 L59.53125,17.7038393 C59.3229156,17.787173 59.1536465,17.8522766 59.0234375,17.8991518 C58.8932285,17.946027 58.7890629,17.9929016 58.7109375,18.0397768 C58.6328121,18.086652 58.59375,18.1517555 58.59375,18.2350893 C58.59375,18.4538404 59.6718642,18.5632143 61.828125,18.5632143 C63.7031344,18.5632143 65.2395773,18.4955066 66.4375,18.3600893 C67.6354227,18.224672 68.6927037,17.9798827 69.609375,17.6257143 C70.5260463,17.2715459 71.3593712,16.7819674 72.109375,16.1569643 Z M88.296875,15.7507143 L88.296875,16.7350893 C87.3906205,17.6621773 86.6067741,18.4199822 85.9453125,19.0085268 C85.2838509,19.5970714 84.7057316,20.0423795 84.2109375,20.3444643 C83.7161434,20.6465491 83.2968767,20.7975893 82.953125,20.7975893 C82.1406209,20.7975893 81.734375,20.3184274 81.734375,19.3600893 C81.734375,18.5892521 81.9869766,17.6960319 82.4921875,16.6804018 C82.9973984,15.6647717 83.7239536,14.4694712 84.671875,13.0944643 C84.2031227,13.3548823 83.7604187,13.6543584 83.34375,13.9929018 C82.9270813,14.3314452 82.5572933,14.6856083 82.234375,15.0554018 C81.9114567,15.4251953 81.6406261,15.7402963 81.421875,16.0007143 C80.7447883,16.7611348 80.0937531,17.5397728 79.46875,18.3366518 C78.8437469,19.1335308 78.4218761,19.6517548 78.203125,19.8913393 C77.9843739,20.1309238 77.7760427,20.2507143 77.578125,20.2507143 C76.7656209,20.2507143 76.359375,19.2507243 76.359375,17.2507143 C76.359375,16.594461 76.4583323,15.8705099 76.65625,15.0788393 C76.8541677,14.2871687 77.3854123,13.2403041 78.25,11.9382143 C80.0729258,9.20903399 81.632806,6.97728547 82.9296875,5.2429018 C84.226569,3.50851813 85.3020791,2.19603125 86.15625,1.3054018 C87.0104209,0.414772346 87.5833319,-0.0201191381 87.875,0.000714299355 C88.2395852,0.0319644556 88.533853,0.104880393 88.7578125,0.219464299 C88.981772,0.334048206 89.09375,0.464255237 89.09375,0.610089299 C89.09375,0.870507268 88.9140643,1.30019047 88.5546875,1.8991518 C88.1953107,2.49811313 87.5781294,3.43299961 86.703125,4.7038393 C85.7552036,6.04759602 85.0833353,6.99289906 84.6875,7.5397768 C84.2916647,8.08665453 83.7005248,8.86268844 82.9140625,9.8679018 C82.1276002,10.8731152 81.4088574,11.7689395 80.7578125,12.5554018 C80.1067676,13.3418641 79.3645875,14.193418 78.53125,15.1100893 L78.53125,16.9850893 C79.9270903,15.4329982 81.1354116,14.1621776 82.15625,13.1725893 C83.1770884,12.183001 84.0416631,11.4356127 84.75,10.9304018 C85.4583369,10.4251909 85.979165,10.1725893 86.3125,10.1725893 C86.6250016,10.1725893 86.9166653,10.3574833 87.1875,10.7272768 C87.4583347,11.0970703 87.59375,11.4017548 87.59375,11.6413393 C87.59375,11.7455065 87.5416672,11.8757135 87.4375,12.0319643 C86.6874963,12.9278021 86.091148,13.6699822 85.6484375,14.2585268 C85.205727,14.8470714 84.8645845,15.3731078 84.625,15.8366518 C84.3854155,16.3001958 84.265625,16.6986293 84.265625,17.0319643 C84.265625,17.5215501 84.4999977,17.7663393 84.96875,17.7663393 C85.4687525,17.7663393 86.5781164,17.094471 88.296875,15.7507143 Z M98.34375,15.7194643 L98.34375,16.7663393 C97.6562466,17.3913424 97.1041687,17.8080049 96.6875,18.0163393 C96.2708313,18.2246737 95.6718789,18.3080062 94.890625,18.2663393 C93.5364516,19.870514 92.3437552,20.6725893 91.3125,20.6725893 C90.7291637,20.6725893 90.1979191,20.4798829 89.71875,20.0944643 C89.2395809,19.7090457 88.8567723,19.1830093 88.5703125,18.5163393 C88.2838527,17.8496693 88.140625,17.1048851 88.140625,16.2819643 C88.140625,15.6152943 88.361977,14.8757184 88.8046875,14.0632143 C89.247398,13.2507102 89.820309,12.4929053 90.5234375,11.7897768 C91.226566,11.0866483 91.9791627,10.5189456 92.78125,10.0866518 C93.5833373,9.65435797 94.3281216,9.4382143 95.015625,9.4382143 C95.5052108,9.4382143 95.8906236,9.51373438 96.171875,9.6647768 C96.4531264,9.81581922 96.59375,10.0267546 96.59375,10.2975893 C96.59375,10.5059237 96.4739595,10.7455046 96.234375,11.0163393 C96.6302103,11.099673 96.9010409,11.2376925 97.046875,11.4304018 C97.1927091,11.6231111 97.265625,11.9746701 97.265625,12.4850893 C97.265625,12.9850918 97.1484387,13.6152938 96.9140625,14.3757143 C96.6796863,15.1361348 96.359377,15.8496693 95.953125,16.5163393 L96.234375,16.7975893 L96.46875,16.7975893 C96.6458342,16.7975893 96.8203116,16.7533189 96.9921875,16.6647768 C97.1640634,16.5762347 97.3177077,16.4824856 97.453125,16.3835268 C97.5885423,16.284568 97.8854144,16.063216 98.34375,15.7194643 Z M95.125,11.6100893 C94.2604123,12.1309252 93.5208364,12.6022747 92.90625,13.0241518 C92.2916636,13.4460289 91.7708355,13.873108 91.34375,14.3054018 C90.9166645,14.7376956 90.6302091,15.1725871 90.484375,15.6100893 C90.223957,16.7767618 90.09375,17.4069638 90.09375,17.5007143 C90.09375,18.1882177 90.5729119,18.5319643 91.53125,18.5319643 C91.9791689,18.5319643 92.7291614,18.1465515 93.78125,17.3757143 C93.6041658,16.8861285 93.515625,16.4173832 93.515625,15.9694643 C93.515625,15.313211 93.6510403,14.6439469 93.921875,13.9616518 C94.1927097,13.2793567 94.5937473,12.4955104 95.125,11.6100893 Z M98.125,17.0632143 L98.125,15.9694643 C99.5833406,14.386123 100.841141,12.8965546 101.898438,11.5007143 C102.955734,10.104874 103.791664,8.99551008 104.40625,8.1725893 C105.020836,7.34966852 105.562498,6.76894516 106.03125,6.4304018 C106.500002,6.09185844 107.088538,5.9225893 107.796875,5.9225893 C108.151043,5.9225893 108.328125,6.05800461 108.328125,6.3288393 C108.328125,6.54759039 108.184897,6.87050383 107.898438,7.2975893 C107.611978,7.72467477 107.244794,8.16217039 106.796875,8.6100893 C106.203122,9.19342555 105.622399,9.92518906 105.054688,10.8054018 C104.486976,11.6856145 103.843754,12.8079991 103.125,14.1725893 C103.687503,13.7350871 104.335934,13.2168631 105.070312,12.6179018 C105.804691,12.0189405 106.403644,11.5501952 106.867188,11.2116518 C107.330731,10.8731084 107.78906,10.604882 108.242188,10.4069643 C108.695315,10.2090466 109.151039,10.1100893 109.609375,10.1100893 C109.901043,10.1100893 110.091145,10.1621721 110.179688,10.2663393 C110.26823,10.3705065 110.3125,10.5736295 110.3125,10.8757143 C110.3125,11.6673849 110.119794,12.4408147 109.734375,13.1960268 C109.348956,13.9512389 108.796879,14.7350852 108.078125,15.5475893 C107.359371,16.3600934 106.473964,17.2455012 105.421875,18.2038393 C105.78646,18.3392566 106.161456,18.4069643 106.546875,18.4069643 C107.755214,18.4069643 109.37499,17.4850985 111.40625,15.6413393 L111.40625,16.7663393 C110.614579,17.4746762 109.84115,18.1413362 109.085938,18.7663393 C108.330725,19.3913424 107.619795,19.8913374 106.953125,20.2663393 C106.286455,20.6413412 105.671878,20.8288393 105.109375,20.8288393 C104.901041,20.8288393 104.679689,20.805402 104.445312,20.7585268 C104.210936,20.7116516 103.994793,20.6543605 103.796875,20.5866518 C103.598957,20.5189431 103.343752,20.4225899 103.03125,20.2975893 C102.718748,20.1725887 102.479168,20.0840479 102.3125,20.0319643 C101.979165,20.115298 101.791667,20.1569643 101.75,20.1569643 C101.385415,20.1569643 100.958336,20.0111324 100.46875,19.7194643 C100.124998,20.3861343 99.7473979,21.2481048 99.3359375,22.3054018 C98.9244771,23.3626988 98.5781264,24.2038362 98.296875,24.8288393 C98.0156236,25.4538424 97.6406273,26.0527948 97.171875,26.6257143 C96.911457,26.8861323 96.7291672,27.0163393 96.625,27.0163393 C96.1770811,27.0163393 95.953125,26.6205099 95.953125,25.8288393 C95.953125,25.1413359 96.0911445,24.4251972 96.3671875,23.6804018 C96.6432305,22.9356064 96.9817688,22.2298843 97.3828125,21.5632143 C97.7838562,20.8965443 98.2239559,20.2220719 98.703125,19.5397768 C99.1822941,18.8574817 99.5208323,18.3496743 99.71875,18.0163393 C101.364592,15.1829918 102.645829,12.7715576 103.5625,10.7819643 C101.166655,13.6986455 99.3541728,15.7923746 98.125,17.0632143 Z M104.46875,17.8288393 C105.500005,16.7455005 106.268227,15.8236348 106.773438,15.0632143 C107.278648,14.3027938 107.53125,13.7194663 107.53125,13.3132143 C107.53125,12.9277957 107.338544,12.7350893 106.953125,12.7350893 C106.432289,12.7350893 105.700526,13.1647725 104.757812,14.0241518 C103.815099,14.8835311 102.843755,16.0423737 101.84375,17.5007143 C102.614587,17.4173805 103.130207,17.388735 103.390625,17.4147768 C103.651043,17.4408186 104.010414,17.578838 104.46875,17.8288393 Z" id="Shop" fill="#000000"></path>
    </g>
</svg>